<svg xmlns="http://www.w3.org/2000/svg" viewBox="0 0 1200 630">
  <defs>
    <linearGradient id="bg" x1="0" x2="1" y1="0" y2="1">
      <stop offset="0" stop-color="#08090b"/>
      <stop offset="1" stop-color="#0d1720"/>
    </linearGradient>
    <filter id="shadow" x="-20%" y="-20%" width="140%" height="140%">
      <feDropShadow dx="0" dy="26" stdDeviation="32" flood-color="#000000" flood-opacity="0.42"/>
    </filter>
  </defs>
  <rect width="1200" height="630" fill="url(#bg)"/>
  <circle cx="930" cy="120" r="280" fill="#55d7ff" opacity="0.08"/>
  <g transform="translate(86 76)">
    <rect width="54" height="54" rx="12" fill="#121821" stroke="#334155" stroke-width="2"/>
    <rect x="17" y="14" width="6" height="6" rx="2" fill="#55d7ff"/>
    <rect x="29" y="14" width="6" height="6" rx="2" fill="#62e59f"/>
    <rect x="17" y="25" width="6" height="6" rx="2" fill="#a78bfa"/>
    <rect x="29" y="25" width="6" height="6" rx="2" fill="#55d7ff"/>
    <rect x="17" y="36" width="6" height="6" rx="2" fill="#62e59f"/>
    <rect x="29" y="36" width="6" height="6" rx="2" fill="#a78bfa"/>
    <text x="72" y="36" fill="#f5f7fb" font-family="-apple-system, BlinkMacSystemFont, Segoe UI, sans-serif" font-size="26" font-weight="760">PR Menu Bar</text>
  </g>
  <text x="86" y="246" fill="#f5f7fb" font-family="-apple-system, BlinkMacSystemFont, Segoe UI, sans-serif" font-size="82" font-weight="800">PR Menu Bar</text>
  <text x="90" y="318" fill="#aab4c2" font-family="-apple-system, BlinkMacSystemFont, Segoe UI, sans-serif" font-size="30" font-weight="640">See merged PRs without leaving your desktop.</text>
  <text x="90" y="368" fill="#7f8aa0" font-family="-apple-system, BlinkMacSystemFont, Segoe UI, sans-serif" font-size="24">A tiny macOS menu bar app for repository activity.</text>
  <g transform="translate(760 168)" filter="url(#shadow)">
    <rect width="388" height="326" rx="10" fill="#141922" stroke="#334155" stroke-width="2"/>
    <text x="34" y="62" fill="#f5f7fb" font-family="-apple-system, BlinkMacSystemFont, Segoe UI, sans-serif" font-size="30" font-weight="760">PR Activity</text>
    <text x="34" y="94" fill="#7f8aa0" font-family="-apple-system, BlinkMacSystemFont, Segoe UI, sans-serif" font-size="16" font-weight="650">Mar 2 - May 2, 2026</text>
    <rect x="34" y="122" width="94" height="58" rx="7" fill="#1c222d" stroke="#334155"/>
    <text x="48" y="157" fill="#55d7ff" font-family="-apple-system, BlinkMacSystemFont, Segoe UI, sans-serif" font-size="25" font-weight="800">1,329</text>
    <rect x="148" y="122" width="94" height="58" rx="7" fill="#1c222d" stroke="#334155"/>
    <text x="164" y="157" fill="#62e59f" font-family="-apple-system, BlinkMacSystemFont, Segoe UI, sans-serif" font-size="25" font-weight="800">289</text>
    <rect x="262" y="122" width="94" height="58" rx="7" fill="#1c222d" stroke="#334155"/>
    <text x="280" y="157" fill="#f8c56b" font-family="-apple-system, BlinkMacSystemFont, Segoe UI, sans-serif" font-size="25" font-weight="800">462</text>
    <g transform="translate(36 224)">
      <rect x="0" y="52" width="28" height="18" rx="3" fill="#a78bfa"/>
      <rect x="42" y="48" width="28" height="22" rx="3" fill="#55d7ff"/>
      <rect x="84" y="25" width="28" height="45" rx="3" fill="#55d7ff"/>
      <rect x="84" y="12" width="28" height="13" rx="3" fill="#a78bfa"/>
      <rect x="126" y="40" width="28" height="30" rx="3" fill="#55d7ff"/>
      <rect x="168" y="36" width="28" height="34" rx="3" fill="#55d7ff"/>
      <rect x="210" y="30" width="28" height="40" rx="3" fill="#55d7ff"/>
      <rect x="252" y="0" width="28" height="70" rx="3" fill="#a78bfa"/>
      <rect x="294" y="16" width="28" height="54" rx="3" fill="#6c7cff"/>
    </g>
  </g>
</svg>
